<?xml version="1.0" standalone="no"?>
<!DOCTYPE svg PUBLIC "-//W3C//DTD SVG 20010904//EN"
 "http://www.w3.org/TR/2001/REC-SVG-20010904/DTD/svg10.dtd">
<svg version="1.0" xmlns="http://www.w3.org/2000/svg"
 width="150.000000pt" height="150.000000pt" viewBox="0 0 150.000000 150.000000"
 preserveAspectRatio="xMidYMid meet">

<g transform="translate(0.000000,150.000000) scale(0.100000,-0.100000)"
fill="#000000" stroke="none">
<path d="M635 1369 c-27 -4 -75 -17 -107 -29 -54 -20 -59 -20 -83 -4 -21 14
-31 15 -51 6 -27 -13 -47 -53 -38 -77 4 -10 -10 -31 -39 -59 -202 -197 -243
-507 -98 -747 l40 -66 -25 -98 c-37 -144 -40 -141 86 -99 58 18 111 34 119 34
8 0 42 -11 76 -25 34 -13 102 -30 152 -36 311 -42 602 169 669 482 41 190 -24
406 -164 545 -41 41 -52 58 -47 73 16 50 -45 92 -95 66 -25 -13 -33 -13 -66 1
-89 37 -224 51 -329 33z m267 -46 c59 -16 98 -43 98 -68 0 -8 9 -20 20 -27 11
-7 20 -23 20 -35 0 -22 -2 -22 -47 11 -57 40 -124 64 -203 73 -39 4 -60 2 -65
-6 -11 -19 0 -24 69 -32 34 -4 88 -19 119 -33 90 -39 195 -148 213 -220 10
-41 -9 -30 -35 19 -57 108 -155 181 -276 205 -170 35 -352 -53 -425 -206 -23
-46 -40 -57 -40 -26 0 39 84 146 156 198 22 17 26 25 17 34 -9 10 -18 8 -41
-9 -36 -26 -42 -26 -42 -3 0 9 9 23 20 30 11 7 20 21 20 32 0 71 253 109 422
63z m-454 -46 c-4 -28 -46 -30 -62 -4 -9 15 -7 21 8 32 25 19 58 2 54 -28z
m646 16 c9 -22 -13 -45 -38 -41 -26 4 -33 38 -11 54 20 15 41 9 49 -13z m-694
-122 c0 -28 -5 -53 -10 -56 -15 -9 -56 -75 -65 -105 -4 -14 -26 -41 -49 -61
l-41 -37 0 -142 0 -142 28 -24 c18 -15 41 -24 62 -24 31 0 35 -3 44 -37 25
-93 106 -152 231 -169 l51 -7 -40 -23 c-22 -14 -50 -41 -62 -62 -12 -20 -23
-38 -25 -40 -1 -2 -19 4 -40 13 -36 15 -41 14 -131 -16 -51 -18 -96 -30 -98
-27 -3 3 5 48 16 100 l22 95 -33 47 c-47 69 -77 152 -91 247 -10 72 -10 96 5
169 9 47 32 117 51 155 34 70 138 195 163 195 8 0 12 -17 12 -49z m761 -11
c104 -111 152 -237 152 -395 0 -132 -28 -217 -108 -330 -54 -76 -84 -103 -165
-152 l-65 -40 -27 43 c-15 24 -41 52 -59 63 l-32 20 39 6 c114 18 195 76 218
154 12 43 16 46 52 51 51 7 63 16 80 56 17 40 19 219 3 261 -12 33 -42 63 -64
63 -8 0 -15 5 -15 11 0 18 -50 112 -71 135 -22 24 -28 114 -7 114 7 0 38 -27
69 -60z m-311 8 c94 -28 164 -88 212 -181 27 -51 28 -55 28 -241 0 -173 -2
-194 -21 -233 -37 -77 -141 -113 -323 -113 -213 0 -322 47 -342 149 l-6 30 56
-19 c30 -11 65 -20 76 -20 12 0 31 -5 42 -11 17 -9 24 -8 34 6 23 31 7 44 -54
42 -35 -1 -75 5 -104 16 l-48 19 0 169 c0 153 2 174 21 211 78 154 258 227
429 176z m-488 -256 c3 -10 6 -79 7 -154 l2 -137 -25 -7 c-37 -9 -74 18 -82
60 -3 19 -4 76 -3 126 4 82 6 94 28 111 29 24 67 25 73 1z m838 -2 c18 -18 20
-33 20 -140 0 -108 -2 -122 -21 -141 -13 -13 -30 -19 -47 -17 l-27 3 -3 145
c-1 79 0 150 2 157 8 20 53 16 76 -7z m-400 -557 c0 -21 -29 -53 -48 -53 -22
0 -52 30 -52 52 0 15 8 18 50 18 40 0 50 -3 50 -17z m-100 -54 c26 -26 36 -30
63 -25 18 3 42 18 54 34 22 26 24 26 50 12 25 -14 73 -73 73 -90 0 -12 -78
-30 -158 -37 -79 -6 -207 10 -218 28 -13 22 59 108 93 109 6 0 25 -14 43 -31z"/>
<path d="M593 1255 c-34 -14 -44 -35 -19 -35 38 0 116 25 116 37 0 17 -55 16
-97 -2z"/>
<path d="M514 910 c-33 -13 -72 -66 -79 -109 -9 -54 9 -111 45 -146 l31 -30
230 0 231 0 33 36 c60 66 56 170 -10 228 l-36 31 -212 -1 c-117 0 -221 -4
-233 -9z m82 -98 c37 -24 18 -92 -25 -92 -28 0 -61 26 -61 48 0 37 55 65 86
44z m358 -8 c21 -20 20 -43 -1 -66 -42 -47 -113 9 -77 61 18 25 56 27 78 5z
m-144 -74 c0 -19 -48 -60 -70 -60 -22 0 -70 41 -70 60 0 6 28 10 70 10 42 0
70 -4 70 -10z"/>
<path d="M540 795 c-15 -18 -10 -45 13 -59 15 -9 21 -7 33 8 18 25 18 31 -2
50 -19 20 -28 20 -44 1z"/>
<path d="M892 798 c-30 -30 11 -85 44 -57 25 21 11 69 -21 69 -6 0 -16 -5 -23
-12z"/>
</g>
</svg>
